# xmcd
#
# Track frame offsets: 
#        150
#        10840
#        22522
#        34652
#        45932
#        57100
#        70312
#        81407
#        93082
#        104560
#        114729
#        123270
#        134015
#        146520
#        156855
#        169090
#        180622
#        193137
#
# Disc length: 2732 seconds
#
# Revision: 0
# Processed by: cddbd v1.4PL0 Copyright (c) Steve Scherf et al.
# Submitted via: ExactAudioCopy v0.90a11
#
DISCID=ec0aaa12
DTITLE=Adolph Hofner and the Pearl Wranglers - Adolph Hofner and the P
DTITLE=earl Wranglers [CD1]
DYEAR=1900
DGENRE=
TTITLE0=The County Fair Polka
TTITLE1=The Tickle-Toe Song
TTITLE2=Rockin' and A-Boppin'
TTITLE3=I Get So Lonesome (Since You're Gone)
TTITLE4=Bandera Waltz
TTITLE5=Dance the Paul Jones - Old Joe Clark
TTITLE6=Careless
TTITLE7=Pistol Packin' Mama
TTITLE8=Julida Polka
TTITLE9=Beautiful America
TTITLE10=Dude Ranch Schottische
TTITLE11=Westphalia Waltz
TTITLE12=The Three Caballeros
TTITLE13=Mexico
TTITLE14=Pipeliner Blues
TTITLE15=Over the Waves
TTITLE16=Milk Cow Blues
TTITLE17=Put Your Little Foot
EXTD=
EXTT0=
EXTT1=
EXTT2=
EXTT3=
EXTT4=
EXTT5=
EXTT6=
EXTT7=
EXTT8=
EXTT9=
EXTT10=
EXTT11=
EXTT12=
EXTT13=
EXTT14=
EXTT15=
EXTT16=
EXTT17=
PLAYORDER=
